<svg width="700" height="700" viewBox="0 0 700 700" fill="none" xmlns="http://www.w3.org/2000/svg">
<rect width="700" height="700" fill="#454549"/>
<path d="M417.75 297.25C415.164 297.25 412.684 298.277 410.856 300.106C409.027 301.934 408 304.414 408 307V310.803L393.57 296.373C391.06 293.846 388.075 291.841 384.787 290.473C381.499 289.105 377.973 288.4 374.411 288.4C370.85 288.4 367.324 289.105 364.036 290.473C360.748 291.841 357.763 293.846 355.253 296.373L348.428 303.198L324.248 278.92C319.07 274.024 312.215 271.296 305.089 271.296C297.963 271.296 291.108 274.024 285.93 278.92L271.5 293.35V238.75C271.5 236.164 272.527 233.684 274.356 231.856C276.184 230.027 278.664 229 281.25 229H359.25C361.836 229 364.316 227.973 366.144 226.144C367.973 224.316 369 221.836 369 219.25C369 216.664 367.973 214.184 366.144 212.356C364.316 210.527 361.836 209.5 359.25 209.5H281.25C273.492 209.5 266.053 212.582 260.567 218.067C255.082 223.553 252 230.992 252 238.75V355.75C252 363.508 255.082 370.947 260.567 376.433C266.053 381.918 273.492 385 281.25 385H398.25C406.008 385 413.447 381.918 418.933 376.433C424.418 370.947 427.5 363.508 427.5 355.75V307C427.5 304.414 426.473 301.934 424.644 300.106C422.816 298.277 420.336 297.25 417.75 297.25ZM281.25 365.5C278.664 365.5 276.184 364.473 274.356 362.644C272.527 360.816 271.5 358.336 271.5 355.75V320.943L299.775 292.668C301.207 291.303 303.11 290.541 305.089 290.541C307.067 290.541 308.97 291.303 310.402 292.668L341.31 323.575L383.137 365.5H281.25ZM408 355.75C407.919 357.604 407.31 359.397 406.245 360.918L362.272 316.75L369.098 309.925C370.522 308.508 372.45 307.713 374.46 307.713C376.47 307.713 378.398 308.508 379.823 309.925L408 338.395V355.75ZM417.75 190C412.612 189.997 407.564 191.347 403.114 193.914C398.664 196.481 394.969 200.176 392.4 204.625C391.755 205.738 391.337 206.967 391.17 208.242C391.002 209.517 391.089 210.813 391.424 212.055C391.759 213.296 392.337 214.459 393.123 215.476C393.91 216.494 394.89 217.346 396.008 217.983C398.246 219.254 400.897 219.588 403.381 218.912C405.865 218.236 407.981 216.605 409.267 214.375C410.332 212.497 411.989 211.025 413.98 210.19C415.971 209.355 418.183 209.205 420.269 209.763C422.354 210.32 424.196 211.554 425.505 213.271C426.813 214.988 427.515 217.091 427.5 219.25C427.5 221.836 426.473 224.316 424.644 226.144C422.816 227.973 420.336 229 417.75 229C415.164 229 412.684 230.027 410.856 231.856C409.027 233.684 408 236.164 408 238.75C408 241.336 409.027 243.816 410.856 245.644C412.684 247.473 415.164 248.5 417.75 248.5C425.508 248.5 432.947 245.418 438.433 239.933C443.918 234.447 447 227.008 447 219.25C447 211.492 443.918 204.053 438.433 198.567C432.947 193.082 425.508 190 417.75 190ZM421.455 259.03C419.69 258.212 417.721 257.94 415.8 258.25L414.045 258.835L412.29 259.712L410.828 260.98C409.912 261.903 409.19 262.999 408.705 264.204C408.219 265.41 407.98 266.7 408 268C407.993 269.283 408.239 270.555 408.724 271.743C409.209 272.931 409.924 274.011 410.828 274.923C411.734 275.836 412.812 276.562 414 277.057C415.188 277.552 416.463 277.807 417.75 277.807C419.037 277.807 420.311 277.552 421.5 277.057C422.688 276.562 423.766 275.836 424.672 274.923C425.576 274.011 426.291 272.931 426.776 271.743C427.261 270.555 427.507 269.283 427.5 268C427.49 266.075 426.911 264.196 425.835 262.6C424.76 261.004 423.236 259.761 421.455 259.03Z" fill="white"/>
<path d="M146.915 468.455V515H138.415L118.165 485.705H117.824V515H107.983V468.455H116.619L136.71 497.727H137.119V468.455H146.915ZM170.636 515.682C167.106 515.682 164.053 514.932 161.477 513.432C158.917 511.917 156.939 509.811 155.545 507.114C154.152 504.402 153.455 501.258 153.455 497.682C153.455 494.076 154.152 490.924 155.545 488.227C156.939 485.515 158.917 483.409 161.477 481.909C164.053 480.394 167.106 479.636 170.636 479.636C174.167 479.636 177.212 480.394 179.773 481.909C182.348 483.409 184.333 485.515 185.727 488.227C187.121 490.924 187.818 494.076 187.818 497.682C187.818 501.258 187.121 504.402 185.727 507.114C184.333 509.811 182.348 511.917 179.773 513.432C177.212 514.932 174.167 515.682 170.636 515.682ZM170.682 508.182C172.288 508.182 173.629 507.727 174.705 506.818C175.78 505.894 176.591 504.636 177.136 503.045C177.697 501.455 177.977 499.644 177.977 497.614C177.977 495.583 177.697 493.773 177.136 492.182C176.591 490.591 175.78 489.333 174.705 488.409C173.629 487.485 172.288 487.023 170.682 487.023C169.061 487.023 167.697 487.485 166.591 488.409C165.5 489.333 164.674 490.591 164.114 492.182C163.568 493.773 163.295 495.583 163.295 497.614C163.295 499.644 163.568 501.455 164.114 503.045C164.674 504.636 165.5 505.894 166.591 506.818C167.697 507.727 169.061 508.182 170.682 508.182ZM218.949 468.455V515H209.108V468.455H218.949ZM226.864 515V480.091H236.091V486.25H236.5C237.227 484.205 238.439 482.591 240.136 481.409C241.833 480.227 243.864 479.636 246.227 479.636C248.621 479.636 250.659 480.235 252.341 481.432C254.023 482.614 255.144 484.22 255.705 486.25H256.068C256.78 484.25 258.068 482.652 259.932 481.455C261.811 480.242 264.03 479.636 266.591 479.636C269.848 479.636 272.492 480.674 274.523 482.75C276.568 484.811 277.591 487.735 277.591 491.523V515H267.932V493.432C267.932 491.492 267.417 490.038 266.386 489.068C265.356 488.098 264.068 487.614 262.523 487.614C260.765 487.614 259.394 488.174 258.409 489.295C257.424 490.402 256.932 491.864 256.932 493.682V515H247.545V493.227C247.545 491.515 247.053 490.152 246.068 489.136C245.098 488.121 243.818 487.614 242.227 487.614C241.152 487.614 240.182 487.886 239.318 488.432C238.47 488.962 237.795 489.712 237.295 490.682C236.795 491.636 236.545 492.758 236.545 494.045V515H226.864ZM295.193 515.659C292.966 515.659 290.981 515.273 289.239 514.5C287.496 513.712 286.117 512.553 285.102 511.023C284.102 509.477 283.602 507.553 283.602 505.25C283.602 503.311 283.958 501.682 284.67 500.364C285.383 499.045 286.352 497.985 287.58 497.182C288.807 496.379 290.201 495.773 291.761 495.364C293.337 494.955 294.989 494.667 296.716 494.5C298.746 494.288 300.383 494.091 301.625 493.909C302.867 493.712 303.769 493.424 304.33 493.045C304.89 492.667 305.17 492.106 305.17 491.364V491.227C305.17 489.788 304.716 488.674 303.807 487.886C302.913 487.098 301.64 486.705 299.989 486.705C298.246 486.705 296.86 487.091 295.83 487.864C294.799 488.621 294.117 489.576 293.784 490.727L284.83 490C285.284 487.879 286.178 486.045 287.511 484.5C288.845 482.939 290.564 481.742 292.67 480.909C294.792 480.061 297.246 479.636 300.034 479.636C301.973 479.636 303.83 479.864 305.602 480.318C307.39 480.773 308.973 481.477 310.352 482.432C311.746 483.386 312.845 484.614 313.648 486.114C314.451 487.598 314.852 489.379 314.852 491.455V515H305.67V510.159H305.398C304.837 511.25 304.087 512.212 303.148 513.045C302.208 513.864 301.08 514.508 299.761 514.977C298.443 515.432 296.92 515.659 295.193 515.659ZM297.966 508.977C299.39 508.977 300.648 508.697 301.739 508.136C302.83 507.561 303.686 506.788 304.307 505.818C304.928 504.848 305.239 503.75 305.239 502.523V498.818C304.936 499.015 304.519 499.197 303.989 499.364C303.473 499.515 302.89 499.659 302.239 499.795C301.587 499.917 300.936 500.03 300.284 500.136C299.633 500.227 299.042 500.311 298.511 500.386C297.375 500.553 296.383 500.818 295.534 501.182C294.686 501.545 294.027 502.038 293.557 502.659C293.087 503.265 292.852 504.023 292.852 504.932C292.852 506.25 293.33 507.258 294.284 507.955C295.254 508.636 296.481 508.977 297.966 508.977ZM338.091 528.818C334.955 528.818 332.265 528.386 330.023 527.523C327.795 526.674 326.023 525.515 324.705 524.045C323.386 522.576 322.53 520.924 322.136 519.091L331.091 517.886C331.364 518.583 331.795 519.235 332.386 519.841C332.977 520.447 333.758 520.932 334.727 521.295C335.712 521.674 336.909 521.864 338.318 521.864C340.424 521.864 342.159 521.348 343.523 520.318C344.902 519.303 345.591 517.598 345.591 515.205V508.818H345.182C344.758 509.788 344.121 510.705 343.273 511.568C342.424 512.432 341.333 513.136 340 513.682C338.667 514.227 337.076 514.5 335.227 514.5C332.606 514.5 330.22 513.894 328.068 512.682C325.932 511.455 324.227 509.583 322.955 507.068C321.697 504.538 321.068 501.341 321.068 497.477C321.068 493.523 321.712 490.22 323 487.568C324.288 484.917 326 482.932 328.136 481.614C330.288 480.295 332.644 479.636 335.205 479.636C337.159 479.636 338.795 479.97 340.114 480.636C341.432 481.288 342.492 482.106 343.295 483.091C344.114 484.061 344.742 485.015 345.182 485.955H345.545V480.091H355.159V515.341C355.159 518.311 354.432 520.795 352.977 522.795C351.523 524.795 349.508 526.295 346.932 527.295C344.371 528.311 341.424 528.818 338.091 528.818ZM338.295 507.227C339.856 507.227 341.174 506.841 342.25 506.068C343.341 505.28 344.174 504.159 344.75 502.705C345.341 501.235 345.636 499.477 345.636 497.432C345.636 495.386 345.348 493.614 344.773 492.114C344.197 490.598 343.364 489.424 342.273 488.591C341.182 487.758 339.856 487.341 338.295 487.341C336.705 487.341 335.364 487.773 334.273 488.636C333.182 489.485 332.356 490.667 331.795 492.182C331.235 493.697 330.955 495.447 330.955 497.432C330.955 499.447 331.235 501.189 331.795 502.659C332.371 504.114 333.197 505.242 334.273 506.045C335.364 506.833 336.705 507.227 338.295 507.227ZM378.773 515.682C375.182 515.682 372.091 514.955 369.5 513.5C366.924 512.03 364.939 509.955 363.545 507.273C362.152 504.576 361.455 501.386 361.455 497.705C361.455 494.114 362.152 490.962 363.545 488.25C364.939 485.538 366.902 483.424 369.432 481.909C371.977 480.394 374.962 479.636 378.386 479.636C380.689 479.636 382.833 480.008 384.818 480.75C386.818 481.477 388.561 482.576 390.045 484.045C391.545 485.515 392.712 487.364 393.545 489.591C394.379 491.803 394.795 494.394 394.795 497.364V500.023H365.318V494.023H385.682C385.682 492.629 385.379 491.394 384.773 490.318C384.167 489.242 383.326 488.402 382.25 487.795C381.189 487.174 379.955 486.864 378.545 486.864C377.076 486.864 375.773 487.205 374.636 487.886C373.515 488.553 372.636 489.455 372 490.591C371.364 491.712 371.038 492.962 371.023 494.341V500.045C371.023 501.773 371.341 503.265 371.977 504.523C372.629 505.78 373.545 506.75 374.727 507.432C375.909 508.114 377.311 508.455 378.932 508.455C380.008 508.455 380.992 508.303 381.886 508C382.78 507.697 383.545 507.242 384.182 506.636C384.818 506.03 385.303 505.288 385.636 504.409L394.591 505C394.136 507.152 393.205 509.03 391.795 510.636C390.402 512.227 388.598 513.47 386.386 514.364C384.189 515.242 381.652 515.682 378.773 515.682ZM434.699 480.091V487.364H413.153V480.091H434.699ZM418.085 515V477.568C418.085 475.038 418.578 472.939 419.562 471.273C420.562 469.606 421.926 468.356 423.653 467.523C425.381 466.689 427.343 466.273 429.54 466.273C431.025 466.273 432.381 466.386 433.608 466.614C434.85 466.841 435.775 467.045 436.381 467.227L434.653 474.5C434.275 474.379 433.805 474.265 433.244 474.159C432.699 474.053 432.138 474 431.562 474C430.138 474 429.146 474.333 428.585 475C428.025 475.652 427.744 476.568 427.744 477.75V515H418.085ZM455.136 515.682C451.606 515.682 448.553 514.932 445.977 513.432C443.417 511.917 441.439 509.811 440.045 507.114C438.652 504.402 437.955 501.258 437.955 497.682C437.955 494.076 438.652 490.924 440.045 488.227C441.439 485.515 443.417 483.409 445.977 481.909C448.553 480.394 451.606 479.636 455.136 479.636C458.667 479.636 461.712 480.394 464.273 481.909C466.848 483.409 468.833 485.515 470.227 488.227C471.621 490.924 472.318 494.076 472.318 497.682C472.318 501.258 471.621 504.402 470.227 507.114C468.833 509.811 466.848 511.917 464.273 513.432C461.712 514.932 458.667 515.682 455.136 515.682ZM455.182 508.182C456.788 508.182 458.129 507.727 459.205 506.818C460.28 505.894 461.091 504.636 461.636 503.045C462.197 501.455 462.477 499.644 462.477 497.614C462.477 495.583 462.197 493.773 461.636 492.182C461.091 490.591 460.28 489.333 459.205 488.409C458.129 487.485 456.788 487.023 455.182 487.023C453.561 487.023 452.197 487.485 451.091 488.409C450 489.333 449.174 490.591 448.614 492.182C448.068 493.773 447.795 495.583 447.795 497.614C447.795 499.644 448.068 501.455 448.614 503.045C449.174 504.636 450 505.894 451.091 506.818C452.197 507.727 453.561 508.182 455.182 508.182ZM501 500.136V480.091H510.682V515H501.386V508.659H501.023C500.235 510.705 498.924 512.348 497.091 513.591C495.273 514.833 493.053 515.455 490.432 515.455C488.098 515.455 486.045 514.924 484.273 513.864C482.5 512.803 481.114 511.295 480.114 509.341C479.129 507.386 478.629 505.045 478.614 502.318V480.091H488.295V500.591C488.311 502.652 488.864 504.28 489.955 505.477C491.045 506.674 492.508 507.273 494.341 507.273C495.508 507.273 496.598 507.008 497.614 506.477C498.629 505.932 499.447 505.129 500.068 504.068C500.705 503.008 501.015 501.697 501 500.136ZM528.108 494.818V515H518.426V480.091H527.653V486.25H528.062C528.835 484.22 530.131 482.614 531.949 481.432C533.767 480.235 535.972 479.636 538.562 479.636C540.987 479.636 543.1 480.167 544.903 481.227C546.706 482.288 548.108 483.803 549.108 485.773C550.108 487.727 550.608 490.061 550.608 492.773V515H540.926V494.5C540.941 492.364 540.396 490.697 539.29 489.5C538.184 488.288 536.661 487.682 534.722 487.682C533.419 487.682 532.267 487.962 531.267 488.523C530.282 489.083 529.509 489.902 528.949 490.977C528.403 492.038 528.123 493.318 528.108 494.818ZM571.102 515.568C568.451 515.568 566.049 514.886 563.898 513.523C561.761 512.144 560.064 510.121 558.807 507.455C557.564 504.773 556.943 501.485 556.943 497.591C556.943 493.591 557.587 490.265 558.875 487.614C560.163 484.947 561.875 482.955 564.011 481.636C566.163 480.303 568.519 479.636 571.08 479.636C573.034 479.636 574.663 479.97 575.966 480.636C577.284 481.288 578.345 482.106 579.148 483.091C579.966 484.061 580.587 485.015 581.011 485.955H581.307V468.455H590.966V515H581.42V509.409H581.011C580.557 510.379 579.913 511.341 579.08 512.295C578.261 513.235 577.193 514.015 575.875 514.636C574.572 515.258 572.981 515.568 571.102 515.568ZM574.17 507.864C575.731 507.864 577.049 507.439 578.125 506.591C579.216 505.727 580.049 504.523 580.625 502.977C581.216 501.432 581.511 499.621 581.511 497.545C581.511 495.47 581.223 493.667 580.648 492.136C580.072 490.606 579.239 489.424 578.148 488.591C577.057 487.758 575.731 487.341 574.17 487.341C572.58 487.341 571.239 487.773 570.148 488.636C569.057 489.5 568.231 490.697 567.67 492.227C567.11 493.758 566.83 495.53 566.83 497.545C566.83 499.576 567.11 501.371 567.67 502.932C568.246 504.477 569.072 505.689 570.148 506.568C571.239 507.432 572.58 507.864 574.17 507.864Z" fill="white"/>
</svg>
