<svg width="219" height="46" viewBox="0 0 219 46" fill="none" xmlns="http://www.w3.org/2000/svg">
<path d="M22.5195 0.395671C22.1881 0.902809 17.8793 8.43185 17.5479 9.05602L17.3334 9.46564L18.8542 9.01701C21.7396 8.17829 24.8396 8.2173 27.6081 9.13405C28.2125 9.3291 28.7194 9.48514 28.7584 9.46564C28.8754 9.3291 23.3189 0.044576 23.0849 0.00556539C22.9289 -0.0334452 22.6755 0.142102 22.5195 0.395671Z" fill="white"/>
<path d="M12.8297 3.77004C10.7826 4.76481 9.4373 5.52552 9.47629 5.66206C9.49579 5.7986 9.88572 6.24722 10.3146 6.63732C12.2448 8.41231 15.4617 7.74913 16.5535 5.34997C17.0799 4.19916 17.0214 2.11209 16.456 2.11209C16.3391 2.11209 14.7013 2.85329 12.8297 3.77004Z" fill="white"/>
<path d="M29.1288 2.54138C28.0955 6.40343 32.7161 9.29021 35.6211 6.63749C36.05 6.24739 36.44 5.81827 36.4595 5.68173C36.518 5.46717 29.9671 2.13177 29.4797 2.11226C29.3432 2.11226 29.2068 2.30732 29.1288 2.54138Z" fill="white"/>
<path d="M4.5047 9.03664C4.40721 9.30972 7.99457 18.9258 8.34551 19.3354C8.42349 19.4135 8.57946 19.1014 8.71594 18.6528C9.55429 15.883 11.7574 12.9767 14.4674 11.1042C15.1108 10.6556 15.5397 10.3045 15.4422 10.3045C15.3447 10.3045 12.9467 9.95339 10.1002 9.52428C7.2537 9.09516 4.85563 8.74406 4.77765 8.74406C4.69966 8.74406 4.58268 8.8806 4.5047 9.03664Z" fill="white"/>
<path d="M37.8828 9.23142C36.3816 9.46549 34.12 9.81658 32.8527 10.0116L30.5521 10.3627L31.488 10.9869C33.9445 12.6449 36.0306 15.2391 37.1614 18.0673L37.7268 19.4912L39.4425 15.1415C40.3784 12.7424 41.2752 10.4603 41.4312 10.0702C41.6066 9.66054 41.6846 9.19241 41.6066 9.03637C41.4702 8.66577 41.2752 8.68527 37.8828 9.23142Z" fill="white"/>
<path d="M66.5426 12.45C65.4703 12.7621 64.2225 13.0937 63.7741 13.2303L62.9357 13.4448V25.9087V38.3921H66.0552H69.1746V33.6133V28.8345H75.9984H82.8222V33.6133V38.3921H85.8441H88.8661V25.4211V12.45H85.8441H82.8222V17.9115V23.373H75.9984H69.1746V17.6189C69.1746 12.255 69.1551 11.8649 68.8432 11.8844C68.6482 11.8844 67.6149 12.138 66.5426 12.45Z" fill="white"/>
<path d="M164.025 12.4304C162.953 12.7425 161.705 13.0936 161.237 13.2106L160.399 13.4447L160.457 21.9685C160.535 30.1997 160.555 30.5313 160.964 31.6431C161.919 34.2178 163.596 36.0123 166.17 37.2411C169.094 38.6455 172.467 39.1526 176.366 38.8015C182.878 38.1969 186.894 35.4271 188.006 30.7654C188.24 29.7511 188.298 27.8981 188.298 20.9737V12.4499H185.276H182.254V20.4861C182.254 28.8148 182.157 29.8291 181.435 30.8824C180.305 32.5208 178.647 33.145 175.197 33.2815C171.356 33.4181 169.133 32.8719 167.788 31.4871C166.599 30.2582 166.599 30.1997 166.521 20.5836C166.462 13.9908 166.384 11.8647 166.209 11.8842C166.072 11.8842 165.097 12.1378 164.025 12.4304Z" fill="white"/>
<path d="M93.9352 25.4211V38.3921H105.692H117.428L118.228 35.7004L119.008 33.0281L109.591 32.9696L100.174 32.9306V30.4924V28.0543H108.168H116.161V25.4211V22.7878H108.168H100.174V20.3497V17.9115H108.811H117.428L117.974 16.0975C118.267 15.1223 118.637 13.8934 118.793 13.3668L119.066 12.45H106.51H93.9352V25.4211Z" fill="white"/>
<path d="M122.985 25.4211V38.3921L134.312 38.3531L145.64 38.2946L146.4 35.8564C146.81 34.5105 147.161 33.3012 147.161 33.1647C147.161 32.9891 145.211 32.9306 138.095 32.9306H129.029V22.6903V12.45H126.007H122.985V25.4211Z" fill="white"/>
<path d="M150.085 25.4211V38.3921H153.107H156.129V25.4211V12.45H153.107H150.085V25.4211Z" fill="white"/>
<path d="M197.676 12.8401C195.122 13.5228 193.328 14.9272 192.275 17.0532C191.749 18.1065 191.71 18.3796 191.71 20.3496C191.71 22.4172 191.73 22.5342 192.373 23.724C193.523 25.8306 195.687 27.3715 198.222 27.8592C198.807 27.9567 201.692 28.0542 204.656 28.0542C207.619 28.0542 210.349 28.1322 210.7 28.2493C212.24 28.6784 213 30.1413 212.376 31.4481C211.713 32.833 211.85 32.8135 201.965 32.9305L193.114 33.0281L192.373 35.5443C191.944 36.9291 191.613 38.158 191.613 38.236C191.613 38.3335 196.097 38.392 201.907 38.353C212.084 38.2945 212.201 38.2945 213.449 37.8459C216.042 36.9096 217.679 35.3882 218.518 33.1841C218.869 32.2284 218.927 31.7602 218.869 30.1998C218.791 28.6589 218.693 28.1712 218.245 27.313C217.582 26.0257 216.373 24.6603 215.301 24.0556C213.429 22.9438 213.234 22.9243 206.43 22.8073C200.756 22.7098 200.016 22.6512 199.353 22.3197C197.656 21.4809 197.617 19.1988 199.275 18.2431C199.587 18.0675 201.946 17.9895 208.263 17.9115L216.822 17.8139L217.562 15.2978C217.991 13.9129 218.323 12.7035 218.323 12.606C218.323 12.528 213.995 12.45 208.73 12.4695C199.86 12.4695 199.002 12.5085 197.676 12.8401Z" fill="white"/>
<path d="M1.17078 18.6329C0.722362 20.6614 0.351929 22.4169 0.351929 22.5339C0.351929 22.885 1.75568 22.846 2.65251 22.4949C4.17324 21.8513 5.03109 20.5249 5.03109 18.7889C5.03109 17.404 4.50468 16.3508 3.43237 15.5705C2.06762 14.5758 2.08712 14.5563 1.17078 18.6329Z" fill="white"/>
<path d="M43.1468 15.356C41.7625 16.1752 40.9826 17.6967 41.1581 19.1986C41.3726 21.2271 42.7958 22.612 44.8235 22.7485C45.9153 22.8265 46.0127 22.807 45.9153 22.4755C45.7593 21.9878 44.2191 15.239 44.2191 15.1024C44.2191 14.8684 43.7317 14.9854 43.1468 15.356Z" fill="white"/>
<path d="M38.1361 23.2754C38.2336 26.3378 37.2978 29.6147 35.6211 32.1308C35.3091 32.599 35.2506 32.7745 35.4456 32.6965C35.6016 32.638 37.6682 32.0138 40.0273 31.2921C46.4221 29.3416 46.1687 29.4391 46.1687 29.0295C46.1687 28.7369 41.86 24.5628 38.7795 21.8906L38.0776 21.2859L38.1361 23.2754Z" fill="white"/>
<path d="M3.90034 25.0507C1.01486 27.7229 -0.0379527 28.8152 0.00104027 29.0883C0.0595298 29.4004 0.975865 29.7515 5.55754 31.1754L11.0556 32.8723L10.5096 32.0726C8.83295 29.6344 8.13108 27.3913 7.97511 23.9779L7.85813 21.3837L3.90034 25.0507Z" fill="white"/>
<path d="M11.66 34.1788C11.66 35.2125 12.4593 44.8872 12.5568 45.0432C12.7908 45.4333 13.4342 45.0822 17.4699 42.3515C23.3189 38.3919 22.8705 38.8795 20.9793 38.587C17.8989 38.1383 15.0329 36.7925 12.8103 34.7444C11.7185 33.7301 11.66 33.6911 11.66 34.1788Z" fill="white"/>
<path d="M33.8859 34.1984C33.1061 35.0371 31.1564 36.4415 29.9087 37.0656C28.232 37.9239 27.3936 38.197 25.366 38.5676L23.5528 38.8796L28.0955 42.0005C30.864 43.8925 32.8136 45.1018 33.1061 45.1018L33.5935 45.1213L34.0224 39.5623C34.2564 36.5 34.4318 33.9253 34.4123 33.8473C34.3928 33.7497 34.1394 33.9253 33.8859 34.1984Z" fill="white"/>
<path d="M4.01736 34.2373C3.60793 34.3933 3.27649 34.6079 3.27649 34.7054C3.27649 34.803 4.17333 35.9928 5.28463 37.3777C6.37643 38.743 7.48773 40.1084 7.74119 40.44L8.18961 41.0251L8.73551 40.401C9.47637 39.5818 9.82731 38.0018 9.53486 36.8705C8.91098 34.5884 6.23996 33.301 4.01736 34.2373Z" fill="white"/>
<path d="M39.54 34.1204C37.5903 34.9006 36.557 37.1827 37.2394 39.1918C37.4928 39.972 38.1167 40.9277 38.3702 40.9277C38.4677 40.9277 39.6374 39.5429 40.9827 37.8654C42.8739 35.4858 43.3808 34.7446 43.1858 34.569C42.5424 33.9643 40.5343 33.7303 39.54 34.1204Z" fill="white"/>
<path d="M21.3107 42.4491C20.8818 42.6637 20.3359 43.0343 20.1019 43.2878C19.595 43.834 19.0686 45.0238 19.0686 45.609C19.0686 45.9796 19.1856 45.9991 23.0654 45.9991C27.6276 45.9991 27.4131 46.0966 26.5942 44.3021C25.9314 42.9172 24.8981 42.2345 23.2798 42.1565C22.422 42.098 21.8761 42.176 21.3107 42.4491Z" fill="white"/>
</svg>
