<svg width="564" height="119" viewBox="0 0 564 119" fill="none" xmlns="http://www.w3.org/2000/svg">
<path d="M75.5599 24.98C70.9199 23.02 65.8199 21.94 60.4599 21.94C55.0999 21.94 49.9999 23.02 45.3599 24.98L59.2399 0.949995C59.7799 0.0099951 61.1399 0.0099951 61.6799 0.949995L75.5599 24.98Z" fill="url(#paint0_linear_1_1254)"/>
<path d="M41.6702 26.78C32.5302 31.84 25.6602 40.48 22.9302 50.81L12.6202 24.54C12.2202 23.53 13.0702 22.47 14.1402 22.63L41.6702 26.78Z" fill="url(#paint1_linear_1_1254)"/>
<path d="M29.9101 84.71L1.90008 76.07C0.860079 75.75 0.560075 74.42 1.35008 73.69L22.1501 54.39C21.8101 56.46 21.6301 58.59 21.6301 60.76C21.6401 69.79 24.7301 78.11 29.9101 84.71Z" fill="url(#paint2_linear_1_1254)"/>
<path d="M59.8799 99.56L35.3299 116.29C34.4299 116.9 33.2099 116.32 33.1299 115.23L30.9399 85.94C37.9399 94.15 48.2899 99.39 59.8799 99.56Z" fill="url(#paint3_linear_1_1254)"/>
<path d="M89.8903 86.06L87.7103 115.2C87.6303 116.28 86.4103 116.87 85.5103 116.26L61.0103 99.56C72.5503 99.4 82.8803 94.2 89.8903 86.06Z" fill="url(#paint4_linear_1_1254)"/>
<path d="M118.99 75.97L91.1099 84.57C96.2299 78 99.2799 69.73 99.2799 60.75C99.2799 58.55 99.0899 56.39 98.7399 54.29L119.53 73.58C120.33 74.33 120.02 75.65 118.99 75.97Z" fill="url(#paint5_linear_1_1254)"/>
<path d="M108.3 24.59L98.0003 50.85C95.2803 40.53 88.4303 31.9 79.3203 26.82L106.78 22.68C107.85 22.52 108.7 23.58 108.3 24.59Z" fill="url(#paint6_linear_1_1254)"/>
<path d="M60.4599 107.94C54.7299 107.94 50.0898 112.58 50.0898 118.31H70.8398C70.8298 112.59 66.1899 107.94 60.4599 107.94Z" fill="url(#paint7_linear_1_1254)"/>
<path d="M98.3802 90.95C94.8102 95.43 95.5402 101.96 100.02 105.53L112.95 89.31C108.48 85.74 101.96 86.47 98.3802 90.95Z" fill="url(#paint8_linear_1_1254)"/>
<path d="M106.88 50.85C108.15 56.44 113.72 59.93 119.3 58.65L114.68 38.42C109.1 39.7 105.61 45.26 106.88 50.85Z" fill="url(#paint9_linear_1_1254)"/>
<path d="M81.4299 19.12C86.5899 21.61 92.7899 19.44 95.2799 14.27L76.5899 5.27002C74.0999 10.43 76.2699 16.63 81.4299 19.12Z" fill="url(#paint10_linear_1_1254)"/>
<path d="M39.0199 19.12C44.1799 16.63 46.3499 10.43 43.8599 5.27002L25.1699 14.27C27.6599 19.43 33.8599 21.6 39.0199 19.12Z" fill="url(#paint11_linear_1_1254)"/>
<path d="M14.3101 50.85C15.5801 45.26 12.0901 39.7 6.50014 38.43L1.89014 58.66C7.48014 59.93 13.0401 56.43 14.3101 50.85Z" fill="url(#paint12_linear_1_1254)"/>
<path d="M9.41016 89.31L22.3502 105.53C26.8302 101.96 27.5602 95.43 23.9902 90.95C20.4202 86.47 13.8902 85.74 9.41016 89.31Z" fill="url(#paint13_linear_1_1254)"/>
<path d="M178.74 30.39V60.09H213.59V32.11H229.47V98.71H213.59V74.25H178.74V98.71H162.86V34.68L178.74 30.39Z" fill="#E84125"/>
<path d="M258.22 84.55H306.8L302.51 98.71H242.35V32.11H306.81L302.52 46.27H258.23V58.37H299.51V72.53H258.23V84.55H258.22Z" fill="#E84125"/>
<path d="M332.29 32.11V84.55H379.15L374.86 98.71H316.41V32.11H332.29Z" fill="#E84125"/>
<path d="M401.9 32.11V98.71H386.02V32.11H401.9Z" fill="#E84125"/>
<path d="M468.5 32.11H484.38V72.28C484.38 91.68 468.5 100.17 447.99 100.17C428.08 100.17 412.71 91.07 412.71 72.28V34.69L428.59 30.4V72.28C428.59 82.06 435.11 85.76 448.76 85.76C461.98 85.76 468.5 81.81 468.5 72.28V32.11Z" fill="#E84125"/>
<path d="M492.45 52.36C492.45 42.15 500.52 32.1 516.31 32.1H561.63L557.34 46.26H516.48C511.59 46.26 509.18 49.35 509.18 52.35C509.18 55.44 511.67 58.36 516.48 58.36H539.48C555.01 58.36 563.08 68.4 563.08 78.62C563.08 88.57 555.44 98.7 539.48 98.7H492.45L496.74 84.54H539.31C544.12 84.54 546.61 81.71 546.61 78.62C546.61 75.62 544.21 72.44 539.31 72.44H516.31C500.26 72.45 492.45 62.4 492.45 52.36Z" fill="#E84125"/>
<defs>
<linearGradient id="paint0_linear_1_1254" x1="42.7955" y1="12.6146" x2="75.5569" y2="12.6146" gradientUnits="userSpaceOnUse">
<stop stop-color="#E35930"/>
<stop offset="1" stop-color="#E84125"/>
</linearGradient>
<linearGradient id="paint1_linear_1_1254" x1="10.5302" y1="36.7177" x2="41.6705" y2="36.7177" gradientUnits="userSpaceOnUse">
<stop stop-color="#E35930"/>
<stop offset="1" stop-color="#E84125"/>
</linearGradient>
<linearGradient id="paint2_linear_1_1254" x1="-0.00852358" y1="69.5458" x2="29.9143" y2="69.5458" gradientUnits="userSpaceOnUse">
<stop stop-color="#E35930"/>
<stop offset="1" stop-color="#E84125"/>
</linearGradient>
<linearGradient id="paint3_linear_1_1254" x1="30.3877" y1="101.249" x2="59.8787" y2="101.249" gradientUnits="userSpaceOnUse">
<stop stop-color="#E35930"/>
<stop offset="1" stop-color="#E84125"/>
</linearGradient>
<linearGradient id="paint4_linear_1_1254" x1="60.0136" y1="101.288" x2="89.89" y2="101.288" gradientUnits="userSpaceOnUse">
<stop stop-color="#E35930"/>
<stop offset="1" stop-color="#E84125"/>
</linearGradient>
<linearGradient id="paint5_linear_1_1254" x1="89.2777" y1="69.4351" x2="119.981" y2="69.4351" gradientUnits="userSpaceOnUse">
<stop stop-color="#E35930"/>
<stop offset="1" stop-color="#E84125"/>
</linearGradient>
<linearGradient id="paint6_linear_1_1254" x1="76.8664" y1="36.7555" x2="108.401" y2="36.7555" gradientUnits="userSpaceOnUse">
<stop stop-color="#E35930"/>
<stop offset="1" stop-color="#E84125"/>
</linearGradient>
<linearGradient id="paint7_linear_1_1254" x1="64.6787" y1="108.925" x2="56.8983" y2="122.401" gradientUnits="userSpaceOnUse">
<stop stop-color="#E35930"/>
<stop offset="1" stop-color="#E84125"/>
</linearGradient>
<linearGradient id="paint8_linear_1_1254" x1="102.032" y1="88.4747" x2="107.716" y2="102.96" gradientUnits="userSpaceOnUse">
<stop stop-color="#E35930"/>
<stop offset="1" stop-color="#E84125"/>
</linearGradient>
<linearGradient id="paint9_linear_1_1254" x1="106.885" y1="46.0601" x2="121.754" y2="50.6458" gradientUnits="userSpaceOnUse">
<stop stop-color="#E35930"/>
<stop offset="1" stop-color="#E84125"/>
</linearGradient>
<linearGradient id="paint10_linear_1_1254" x1="77.7432" y1="16.2798" x2="90.5993" y2="7.51303" gradientUnits="userSpaceOnUse">
<stop stop-color="#E35930"/>
<stop offset="1" stop-color="#E84125"/>
</linearGradient>
<linearGradient id="paint11_linear_1_1254" x1="33.9984" y1="19.877" x2="35.1609" y2="4.35906" gradientUnits="userSpaceOnUse">
<stop stop-color="#E35930"/>
<stop offset="1" stop-color="#E84125"/>
</linearGradient>
<linearGradient id="paint12_linear_1_1254" x1="12.0586" y1="54.861" x2="0.651193" y2="44.2783" gradientUnits="userSpaceOnUse">
<stop stop-color="#E35930"/>
<stop offset="1" stop-color="#E84125"/>
</linearGradient>
<linearGradient id="paint13_linear_1_1254" x1="26.5332" y1="94.8276" x2="11.147" y2="97.1492" gradientUnits="userSpaceOnUse">
<stop stop-color="#E35930"/>
<stop offset="1" stop-color="#E84125"/>
</linearGradient>
</defs>
</svg>
