<svg width="624" height="618" viewBox="0 0 624 618" fill="none" xmlns="http://www.w3.org/2000/svg">
<path d="M391.04 129.6C366.77 119.33 340.07 113.68 312.07 113.68C284.05 113.68 257.37 119.34 233.08 129.6L305.66 3.87999C308.5 -1.05 315.61 -1.05 318.45 3.87999L391.04 129.6Z" fill="url(#paint0_linear_1_1383)"/>
<path d="M213.78 139.01C165.99 165.5 130.01 210.7 115.75 264.73L61.8201 127.31C59.7301 122.03 64.1701 116.46 69.7901 117.32L213.78 139.01Z" fill="url(#paint1_linear_1_1383)"/>
<path d="M152.29 442.01L5.79019 396.83C0.360195 395.15 -1.22981 388.22 2.93019 384.36L111.76 283.4C109.97 294.25 109.02 305.37 109.02 316.72C109.01 363.99 125.18 407.51 152.29 442.01Z" fill="url(#paint2_linear_1_1383)"/>
<path d="M309.03 519.73L180.63 607.27C175.94 610.48 169.54 607.4 169.11 601.73L157.63 448.53C194.26 491.4 248.41 518.83 309.03 519.73Z" fill="url(#paint3_linear_1_1383)"/>
<path d="M466.02 449.1L454.61 601.55C454.18 607.21 447.8 610.31 443.09 607.09L314.93 519.72C375.32 518.89 429.37 491.68 466.02 449.1Z" fill="url(#paint4_linear_1_1383)"/>
<path d="M618.22 396.31L472.4 441.3C499.17 406.91 515.11 363.68 515.11 316.72C515.11 305.2 514.14 293.93 512.29 282.95L621.05 383.84C625.22 387.72 623.64 394.64 618.22 396.31Z" fill="url(#paint5_linear_1_1383)"/>
<path d="M562.33 127.55L508.43 264.9C494.22 210.93 458.36 165.75 410.7 139.22L554.36 117.55C559.98 116.7 564.4 122.25 562.33 127.55Z" fill="url(#paint6_linear_1_1383)"/>
<path d="M312.07 563.55C282.1 563.55 257.81 587.84 257.81 617.81H366.33C366.33 587.84 342.04 563.55 312.07 563.55Z" fill="url(#paint7_linear_1_1383)"/>
<path d="M510.45 474.68C491.77 498.11 495.61 532.25 519.04 550.93L586.7 466.09C563.28 447.41 529.14 451.26 510.45 474.68Z" fill="url(#paint8_linear_1_1383)"/>
<path d="M554.9 264.9C561.57 294.12 590.66 312.39 619.87 305.72L595.72 199.92C566.51 206.59 548.24 235.68 554.9 264.9Z" fill="url(#paint9_linear_1_1383)"/>
<path d="M421.78 98.9C448.78 111.9 481.21 100.55 494.21 73.55L396.43 26.47C383.43 53.48 394.78 85.9 421.78 98.9Z" fill="url(#paint10_linear_1_1383)"/>
<path d="M199.93 98.9C226.93 85.9 238.27 53.47 225.27 26.47L127.5 73.56C140.5 100.56 172.93 111.91 199.93 98.9Z" fill="url(#paint11_linear_1_1383)"/>
<path d="M70.6702 264.89C77.3402 235.67 59.0502 206.59 29.8402 199.92L5.7002 305.72C34.9202 312.39 64.0102 294.11 70.6702 264.89Z" fill="url(#paint12_linear_1_1383)"/>
<path d="M45.0503 466.1L112.72 550.93C136.15 532.24 139.99 498.1 121.3 474.68C102.62 451.25 68.4803 447.41 45.0503 466.1Z" fill="url(#paint13_linear_1_1383)"/>
<defs>
<linearGradient id="paint0_linear_1_1383" x1="233.087" y1="64.8983" x2="391.043" y2="64.8983" gradientUnits="userSpaceOnUse">
<stop stop-color="#E35930"/>
<stop offset="1" stop-color="#E84125"/>
</linearGradient>
<linearGradient id="paint1_linear_1_1383" x1="61.2934" y1="190.98" x2="213.783" y2="190.98" gradientUnits="userSpaceOnUse">
<stop stop-color="#E35930"/>
<stop offset="1" stop-color="#E84125"/>
</linearGradient>
<linearGradient id="paint2_linear_1_1383" x1="0.578195" y1="362.702" x2="152.288" y2="362.702" gradientUnits="userSpaceOnUse">
<stop stop-color="#E35930"/>
<stop offset="1" stop-color="#E84125"/>
</linearGradient>
<linearGradient id="paint3_linear_1_1383" x1="157.628" y1="528.542" x2="309.032" y2="528.542" gradientUnits="userSpaceOnUse">
<stop stop-color="#E35930"/>
<stop offset="1" stop-color="#E84125"/>
</linearGradient>
<linearGradient id="paint4_linear_1_1383" x1="314.931" y1="528.746" x2="466.017" y2="528.746" gradientUnits="userSpaceOnUse">
<stop stop-color="#E35930"/>
<stop offset="1" stop-color="#E84125"/>
</linearGradient>
<linearGradient id="paint5_linear_1_1383" x1="472.402" y1="362.124" x2="623.422" y2="362.124" gradientUnits="userSpaceOnUse">
<stop stop-color="#E35930"/>
<stop offset="1" stop-color="#E84125"/>
</linearGradient>
<linearGradient id="paint6_linear_1_1383" x1="410.701" y1="191.178" x2="562.849" y2="191.178" gradientUnits="userSpaceOnUse">
<stop stop-color="#E35930"/>
<stop offset="1" stop-color="#E84125"/>
</linearGradient>
<linearGradient id="paint7_linear_1_1383" x1="257.81" y1="590.678" x2="366.328" y2="590.678" gradientUnits="userSpaceOnUse">
<stop stop-color="#E35930"/>
<stop offset="1" stop-color="#E84125"/>
</linearGradient>
<linearGradient id="paint8_linear_1_1383" x1="498.614" y1="502.594" x2="586.706" y2="502.594" gradientUnits="userSpaceOnUse">
<stop stop-color="#E35930"/>
<stop offset="1" stop-color="#E84125"/>
</linearGradient>
<linearGradient id="paint9_linear_1_1383" x1="553.532" y1="253.508" x2="619.878" y2="253.508" gradientUnits="userSpaceOnUse">
<stop stop-color="#E35930"/>
<stop offset="1" stop-color="#E84125"/>
</linearGradient>
<linearGradient id="paint10_linear_1_1383" x1="391.043" y1="65.3827" x2="494.203" y2="65.3827" gradientUnits="userSpaceOnUse">
<stop stop-color="#E35930"/>
<stop offset="1" stop-color="#E84125"/>
</linearGradient>
<linearGradient id="paint11_linear_1_1383" x1="127.496" y1="65.3827" x2="230.652" y2="65.3827" gradientUnits="userSpaceOnUse">
<stop stop-color="#E35930"/>
<stop offset="1" stop-color="#E84125"/>
</linearGradient>
<linearGradient id="paint12_linear_1_1383" x1="5.7022" y1="253.508" x2="72.042" y2="253.508" gradientUnits="userSpaceOnUse">
<stop stop-color="#E35930"/>
<stop offset="1" stop-color="#E84125"/>
</linearGradient>
<linearGradient id="paint13_linear_1_1383" x1="45.053" y1="502.594" x2="133.15" y2="502.594" gradientUnits="userSpaceOnUse">
<stop stop-color="#E35930"/>
<stop offset="1" stop-color="#E84125"/>
</linearGradient>
</defs>
</svg>
